<?xml version="1.0" standalone="no"?>
<!DOCTYPE svg PUBLIC "-//W3C//DTD SVG 20010904//EN"
 "http://www.w3.org/TR/2001/REC-SVG-20010904/DTD/svg10.dtd">
<svg version="1.0" xmlns="http://www.w3.org/2000/svg"
 width="512.000000pt" height="512.000000pt" viewBox="0 0 512.000000 512.000000"
 preserveAspectRatio="xMidYMid meet">
<metadata>
Created by potrace 1.11, written by Peter Selinger 2001-2013
</metadata>
<g transform="translate(0.000000,512.000000) scale(0.100000,-0.100000)"
fill="#000000" stroke="none">
<path d="M0 2560 l0 -2560 2560 0 2560 0 0 2560 0 2560 -2560 0 -2560 0 0
-2560z m1045 2188 c21 -19 73 -166 296 -828 148 -442 272 -806 274 -808 2 -2
46 22 98 53 173 103 412 186 622 216 105 16 348 16 455 0 205 -29 443 -113
615 -215 51 -31 96 -56 98 -56 3 0 125 361 273 803 285 853 287 857 349 857
38 0 79 -24 93 -55 9 -20 12 -439 12 -1771 0 -1525 -2 -1749 -15 -1774 -12
-23 -61 -51 -267 -153 -139 -68 -506 -249 -816 -401 -430 -212 -568 -276 -585
-270 -12 3 -292 139 -622 301 -1067 525 -1005 493 -1021 524 -20 40 -21 3510
0 3548 29 52 98 66 141 29z"/>
<path d="M1080 2674 l0 -1400 735 -362 c404 -199 739 -362 744 -362 6 0 341
163 745 362 l736 362 0 1399 c0 770 -2 1398 -5 1395 -3 -3 -93 -265 -200 -582
-107 -317 -199 -585 -204 -595 -14 -25 -65 -45 -95 -37 -14 3 -54 28 -90 55
-187 142 -416 238 -656 277 -123 20 -358 20 -470 0 -244 -44 -474 -144 -665
-290 -63 -47 -89 -54 -131 -31 -41 22 -21 -29 -249 655 -98 294 -182 539 -187
545 -4 5 -8 -621 -8 -1391z"/>
</g>
</svg>
